<svg width="1000" height="583" viewBox="0 0 1000 583" fill="none" xmlns="http://www.w3.org/2000/svg">
<path d="M500 424.068C504.824 424.068 509.782 425.789 515.127 429.472L539.833 446.502C548.179 452.254 553.169 461.77 553.169 471.941V552.15C553.169 569.185 539.427 582.996 522.477 582.996H477.523C460.573 582.995 446.835 569.185 446.835 552.15V471.941C446.835 461.77 451.821 452.254 460.167 446.502L484.877 429.472C490.221 425.79 495.177 424.069 500 424.068Z" fill="white"></path>
<path fill-rule="evenodd" clip-rule="evenodd" d="M256.777 0L259.37 0.0238408C286.134 0.534278 312.181 8.9375 334.261 24.2143L473.419 120.495C489.426 131.57 510.574 131.57 526.581 120.495L665.739 24.2143C688.531 8.44459 715.552 0.000149754 743.223 0H957.589C981.012 0 1000 19.0834 1000 42.6234V85.66C1000 99.158 993.638 111.86 982.849 119.899L924.326 163.508L924.283 163.544L831.264 236.477C826.511 240.204 824.111 246.418 823.697 252.558L823.689 252.709L823.697 252.86C824.111 258.999 826.511 265.212 831.264 268.94L924.283 341.873L924.326 341.909L982.849 385.518C993.637 393.557 1000 406.256 1000 419.753V462.794C1000 486.334 981.012 505.417 957.589 505.417H743.223C715.552 505.417 688.531 496.973 665.739 481.203L526.581 384.922C510.573 373.846 489.427 373.846 473.419 384.922L334.261 481.203C312.181 496.48 286.134 504.883 259.37 505.393L256.777 505.417H42.4113C18.9884 505.417 0 486.334 0 462.794V419.753C0.000195788 406.255 6.36291 393.557 17.1511 385.518L75.6737 341.909L75.7172 341.873L168.736 268.94C173.489 265.212 175.885 258.998 176.299 252.86L176.311 252.709L176.299 252.558C175.885 246.419 173.489 240.205 168.736 236.477L75.7172 163.544L75.6737 163.508L17.1511 119.899C6.36264 111.86 0 99.158 0 85.66V42.6234C0 19.0834 18.9884 0 42.4113 0H256.777ZM283.923 300.887C274.219 300.887 264.751 303.914 256.832 309.549L171.484 370.283L171.46 370.299L171.44 370.315C164.444 375.551 162.535 385.34 163.96 393.441C165.364 401.422 170.399 409.414 178.94 409.414H296.187C305.471 409.414 314.547 406.645 322.262 401.455L413.157 340.312L413.181 340.292C420.431 335.263 422.492 325.372 421.144 317.166C420.458 312.999 418.865 309.003 416.379 305.997C413.865 302.956 410.383 300.887 406.108 300.887H283.923ZM593.892 300.887C589.617 300.887 586.135 302.956 583.621 305.997C581.135 309.003 579.542 312.999 578.856 317.166C577.508 325.372 579.569 335.263 586.819 340.292L586.843 340.312L677.738 401.455C685.453 406.645 694.529 409.414 703.813 409.414H821.06C829.601 409.414 834.636 401.422 836.04 393.441C837.465 385.34 835.556 375.551 828.56 370.315L828.54 370.299L828.516 370.283L743.168 309.549C735.249 303.914 725.784 300.887 716.081 300.887H593.892ZM178.94 96.0029C170.399 96.0034 165.364 103.995 163.96 111.976C162.535 120.077 164.444 129.866 171.44 135.102L171.46 135.118L171.484 135.134L256.832 195.868C264.751 201.503 274.219 204.53 283.923 204.53H406.108C410.383 204.53 413.865 202.461 416.379 199.42C418.865 196.414 420.458 192.418 421.144 188.251C422.492 180.045 420.431 170.154 413.181 165.125L413.157 165.106L322.262 103.962C314.547 98.7723 305.471 96.003 296.187 96.0029H178.94ZM703.813 96.0029C694.529 96.003 685.453 98.7723 677.738 103.962L586.843 165.106L586.819 165.125C579.569 170.154 577.508 180.045 578.856 188.251C579.542 192.418 581.135 196.414 583.621 199.42C586.135 202.461 589.617 204.53 593.892 204.53H716.081C725.784 204.53 735.249 201.503 743.168 195.868L828.516 135.134L828.54 135.118L828.56 135.102C835.556 129.866 837.465 120.077 836.04 111.976C834.636 103.995 829.601 96.0034 821.06 96.0029H703.813Z" fill="white"></path>
</svg>